<?xml version="1.0" encoding="UTF-8"?>
<svg version="1.1" xmlns="http://www.w3.org/2000/svg" width="500" height="500">
<path d="M0 0 C165 0 330 0 500 0 C500 165 500 330 500 500 C335 500 170 500 0 500 C0 335 0 170 0 0 Z " fill="#FEFEFE" transform="translate(0,0)"/>
<path d="M0 0 C25.31947858 5.26801606 58.56061638 13.25056248 74.08154297 35.63183594 C78.27938563 42.92069457 80.02734841 49.16409546 79.08154297 57.63183594 C75.63619815 68.94265089 66.67449054 76.30886619 56.64257812 81.81494141 C38.30595203 91.44154886 13.51354021 99.36746048 -7.25439453 93.72558594 C-9.5579892 92.80150785 -11.71149202 91.75794109 -13.91845703 90.63183594 C-14.57845703 90.63183594 -15.23845703 90.63183594 -15.91845703 90.63183594 C-22.77652449 110.11119388 -22.77652449 110.11119388 -26.61767578 130.33496094 C-26.77792236 131.75397705 -26.77792236 131.75397705 -26.94140625 133.20166016 C-27.12993948 135.02817514 -27.28564648 136.85847298 -27.40332031 138.69091797 C-28.01131763 144.75331894 -28.01131763 144.75331894 -30.65942383 147.31787109 C-35.55205091 150.52054513 -39.09915271 151.58582025 -44.91845703 150.63183594 C-47.955679 148.18885305 -49.76270136 145.86546944 -51.91845703 142.63183594 C-52.26247904 135.83343181 -49.72171296 129.14619618 -47.54345703 122.81933594 C-47.19259033 121.78671631 -46.84172363 120.75409668 -46.48022461 119.69018555 C-37.20155249 92.80191496 -25.87699277 66.74275266 -13.54345703 41.13183594 C-13.10095108 40.21170212 -13.10095108 40.21170212 -12.64950562 39.27297974 C-9.5479929 32.83888331 -6.39016395 26.48667549 -2.77929688 20.32128906 C-1.76712401 18.65085636 -1.76712401 18.65085636 -1.91845703 16.63183594 C-9.23818473 14.77088822 -16.38628988 14.07421979 -23.91845703 13.63183594 C-23.39308295 9.56373665 -22.30445243 7.45580138 -19.54345703 4.44433594 C-18.93759766 3.77015625 -18.33173828 3.09597656 -17.70751953 2.40136719 C-12.28242359 -2.96450282 -7.00583625 -1.34446438 0 0 Z " fill="#030303" transform="translate(155.91845703125,162.3681640625)"/>
<path d="M0 0 C13.88005496 1.62370454 28.00226365 8.07238705 37 19 C40.5169432 24.15818336 41.26287103 29.84881791 41 36 C39.3503311 42.6683799 34.61190749 47.33862295 29 51 C11.08661317 60.72615134 -9.09975147 64.21973732 -29 59 C-20.86634729 38.45040722 -11.25029066 19.02528439 0 0 Z " fill="#FCFCFC" transform="translate(172,184)"/>
<path d="M0 0 C2.9375 1 2.9375 1 4.8125 2.9375 C8.4187538 12.75452422 4.58888555 22.18383064 0.46484375 31.23046875 C-5.95234075 43.92830191 -15.40757265 56.93906542 -29.16796875 62.18359375 C-32.72533822 63.18695437 -35.38381083 63.4681968 -39.0625 63 C-41.69266161 60.8272578 -43.53586894 59.05326212 -45.0625 56 C-46.40348745 38.03700538 -39.25807987 25.59331527 -28.0625 12 C-20.5653463 3.50322581 -20.5653463 3.50322581 -16.484375 2.13671875 C-14.0625 2 -14.0625 2 -11.0625 4 C-8.39905131 3.7422469 -7.22060932 3.13702808 -5.1875 1.375 C-3.0625 0 -3.0625 0 0 0 Z " fill="#080808" transform="translate(419.0625,249)"/>
<path d="M0 0 C2.69140625 1.65625 2.69140625 1.65625 4.69140625 4.65625 C4.55544457 8.87106217 4.27329714 11.59366663 2.25390625 15.28125 C-6.98328344 23.84254776 -18.0670123 26.47917486 -30.30859375 27.65625 C-33.96771996 35.12696601 -33.84460424 42.48209009 -33.30859375 50.65625 C-32.97859375 50.98625 -32.64859375 51.31625 -32.30859375 51.65625 C-23.64063767 51.49573229 -16.22941212 47.42082004 -9.80859375 41.71875 C-8.98359375 41.038125 -8.15859375 40.3575 -7.30859375 39.65625 C-6.31859375 39.98625 -5.32859375 40.31625 -4.30859375 40.65625 C-3.9296875 43.37890625 -3.9296875 43.37890625 -4.30859375 46.65625 C-6.36126447 48.52547711 -8.01059973 49.733259 -10.37109375 51.09375 C-10.99653076 51.47136475 -11.62196777 51.84897949 -12.26635742 52.23803711 C-32.76603802 64.34928408 -32.76603802 64.34928408 -42.30859375 62.65625 C-45.17889244 60.86231332 -46.79991013 59.67361724 -48.30859375 56.65625 C-50.26967384 39.00652919 -40.65913563 24.02656769 -30.30859375 10.65625 C-29.51775391 9.63144531 -29.51775391 9.63144531 -28.7109375 8.5859375 C-27.3098518 6.85979992 -25.85937283 5.24838319 -24.30859375 3.65625 C-23.83550781 3.14964844 -23.36242187 2.64304688 -22.875 2.12109375 C-16.79621739 -3.32100839 -7.2246267 -2.93420494 0 0 Z " fill="#0A0A0A" transform="translate(272.30859375,249.34375)"/>
<path d="M0 0 C0.66 0.66 1.32 1.32 2 2 C1.63402351 5.78402858 0.28730882 8.76897388 -1.43359375 12.125 C-1.91763672 13.07890625 -2.40167969 14.0328125 -2.90039062 15.015625 C-3.40763672 16.00046875 -3.91488281 16.9853125 -4.4375 18 C-5.43798743 19.9574197 -6.43674601 21.91572423 -7.43359375 23.875 C-8.09959595 25.17050781 -8.09959595 25.17050781 -8.77905273 26.4921875 C-9.97108835 28.94061579 -10.98863356 31.47158391 -12 34 C-5.4 34.33 1.2 34.66 8 35 C6 39 6 39 3 41 C0.74364755 41.45407341 -1.53135679 41.81890411 -3.8125 42.125 C-5.01519531 42.29257812 -6.21789062 42.46015625 -7.45703125 42.6328125 C-10.6727139 42.9660806 -13.77080892 43.06923227 -17 43 C-17.17378174 43.52859619 -17.34756348 44.05719238 -17.52661133 44.60180664 C-18.91289361 48.79254299 -20.33633111 52.96526966 -21.82421875 57.12109375 C-22.44543231 58.89318717 -23.06652502 60.66532296 -23.6875 62.4375 C-24.00783203 63.31470703 -24.32816406 64.19191406 -24.65820312 65.09570312 C-26.77574856 71.22258831 -27.41477912 76.53135869 -27 83 C-20.48069173 81.27192717 -16.00357466 78.81785989 -10.84765625 74.42578125 C-9 73 -9 73 -7 73 C-6.505 76.465 -6.505 76.465 -6 80 C-30.66261114 97.04819841 -30.66261114 97.04819841 -38 96 C-40.34893536 94.29412456 -40.93939757 93.37882026 -41.40283203 90.48193359 C-41.35244949 83.03637677 -40.20177107 76.68148186 -37.875 69.625 C-37.56167725 68.63491943 -37.24835449 67.64483887 -36.92553711 66.62475586 C-34.41624835 58.86284953 -31.48879798 51.37375983 -28 44 C-31.96 44 -35.92 44 -40 44 C-39 40 -39 40 -37 38 C-35.08484545 37.8709851 -33.16767899 37.77098105 -31.25 37.6875 C-27.34455864 37.06766265 -25.58921324 36.73471284 -23.0859375 33.61328125 C-21.45755928 30.14318113 -20.15430943 26.64802914 -19 23 C-18.75588379 22.23800293 -18.51176758 21.47600586 -18.26025391 20.69091797 C-18.00550293 19.89443848 -17.75075195 19.09795898 -17.48828125 18.27734375 C-17.09938721 17.07464844 -17.09938721 17.07464844 -16.70263672 15.84765625 C-16.20174178 14.26985319 -15.72198199 12.68514623 -15.26611328 11.09375 C-13.80050885 6.27683204 -12.41240129 3.80532861 -8 1 C-7.319375 0.566875 -6.63875 0.13375 -5.9375 -0.3125 C-3.51752336 -1.17120139 -2.36396706 -0.94558682 0 0 Z " fill="#080808" transform="translate(373,216)"/>
<path d="M0 0 C0.3125 2.25 0.3125 2.25 0 5 C-2.46766509 7.60867453 -4.04378023 8.86339718 -7.625 9.375 C-10 9 -10 9 -13 7 C-17.34083735 6.43729886 -19.27710864 6.48140402 -22.875 9.0625 C-25.34064564 12.47089251 -25.75554295 14.84423007 -26 19 C-22.95861201 20.74792413 -20.6736583 21.23225966 -17.1875 21.375 C-12.12653803 21.78676466 -9.14349083 23.09074048 -5 26 C-3.48365138 29.03269725 -3.48691025 31.72226193 -4 35 C-7.62457337 45.87372011 -15.90768525 52.34288388 -25.61328125 57.8125 C-33.18825955 61.58139264 -41.66670986 61.95442855 -50 61 C-52.3828125 59.6640625 -52.3828125 59.6640625 -54 58 C-55.51634979 50.87315597 -51.35791305 45.0862174 -48 39 C-46.02 39 -44.04 39 -42 39 C-42.08378906 39.85464844 -42.16757812 40.70929688 -42.25390625 41.58984375 C-42.35574219 42.69457031 -42.45757812 43.79929687 -42.5625 44.9375 C-42.71912109 46.59072266 -42.71912109 46.59072266 -42.87890625 48.27734375 C-42.91886719 49.17582031 -42.95882813 50.07429688 -43 51 C-41.37905182 52.62094818 -39.60872115 52.20950959 -37.375 52.25 C-31.06286561 52.15995529 -26.91676149 50.74638269 -22.1875 46.4375 C-19.15685307 42.49965284 -18.63753114 37.81478738 -18 33 C-19.09699219 32.90203125 -20.19398438 32.8040625 -21.32421875 32.703125 C-22.77873878 32.552981 -24.23316118 32.40188917 -25.6875 32.25 C-26.7693457 32.1571875 -26.7693457 32.1571875 -27.87304688 32.0625 C-32.65725456 31.53820327 -35.54622502 30.61379544 -39 27 C-40.04317137 22.25831197 -38.84173901 19.22508357 -36.5625 15.125 C-27.16648035 0.58776205 -16.70389146 -6.49595779 0 0 Z " fill="#0A0A0A" transform="translate(325,251)"/>
<path d="M0 0 C2.31531519 1.07042067 3.44893697 1.77722494 4.91796875 3.88671875 C6.89192572 16.24039943 2.87546613 25.93802458 -4.08203125 35.88671875 C-7.38037033 40.35543621 -10.54682598 44.4303818 -16.20703125 45.44921875 C-19.08203125 44.88671875 -19.08203125 44.88671875 -20.95703125 43.01171875 C-23.53274538 35.85695729 -22.47004321 29.34922086 -19.40234375 22.52734375 C-7.92312714 -0.43108947 -7.92312714 -0.43108947 0 0 Z " fill="#F8F8F8" transform="translate(408.08203125,256.11328125)"/>
<path d="M0 0 C1.8125 0.0859375 1.8125 0.0859375 4 0.375 C4.721875 0.46523437 5.44375 0.55546875 6.1875 0.6484375 C8 1 8 1 9 2 C9.375 4.75 9.375 4.75 9 8 C5.85517668 12.06977135 3.0059571 13.92028376 -2 15 C-4.69217435 15.14118093 -7.30011096 15.09309962 -10 15 C-8.65794923 11.19639883 -6.95995677 8.38858921 -4.4375 5.25 C-3.81746094 4.47140625 -3.19742188 3.6928125 -2.55859375 2.890625 C-1 1 -1 1 0 0 Z " fill="#F4F4F4" transform="translate(256,254)"/>
</svg>
