<?xml version="1.0" encoding="UTF-8"?>
<svg version="1.1" xmlns="http://www.w3.org/2000/svg" width="500" height="500">
<path d="M0 0 C1.546875 1.0828125 1.546875 1.0828125 3.125 2.1875 C4.07375 2.785625 5.0225 3.38375 6 4 C8.73118335 3.34971825 10.5633435 2.26762818 12.9375 0.8125 C15.90694832 -0.35728267 17.95397356 0.22229112 21 1 C21.99 1.66 22.98 2.32 24 3 C23.43240183 8.61291525 21.31871425 13.03614866 18.9375 18.0625 C4.49931427 48.77839545 4.49931427 48.77839545 1 82 C7.96874506 80.70949166 13.08891333 77.85189664 19 74 C21.09698983 77.40760847 21.58453195 80.03133569 21 84 C18.8671875 86.2734375 18.8671875 86.2734375 15.875 88.375 C15.34310059 88.75148682 14.81120117 89.12797363 14.26318359 89.51586914 C-5.04924238 102.8991397 -5.04924238 102.8991397 -14.6875 103.0625 C-18 102 -18 102 -20 99.3125 C-23.81132332 87.52121848 -18.28055795 73.35484633 -15 62 C-15.66 62 -16.32 62 -17 62 C-17.33644531 62.82564453 -17.33644531 62.82564453 -17.6796875 63.66796875 C-25.77170654 77.96067693 -48.21868433 94.96516614 -64.0546875 99.6015625 C-67.15437136 100.23643751 -69.8481651 100.28141383 -73 100 C-75.90717073 97.78136971 -76.83981643 96.48055071 -78 93 C-79.35072217 78.20848509 -74.72406956 64.97484296 -68 52 C-67.26523437 50.54013672 -67.26523437 50.54013672 -66.515625 49.05078125 C-54.79614607 27.32333146 -33.51995213 7.93864963 -10.21875 -0.35546875 C-6.46293857 -1.10754264 -3.72354968 -0.84907546 0 0 Z M-36.39746094 31.69482422 C-45.21622321 42.89279505 -54.45491363 56.75634348 -54.125 71.4375 C-54.10695313 72.48808594 -54.08890625 73.53867187 -54.0703125 74.62109375 C-54.04710937 75.40613281 -54.02390625 76.19117188 -54 77 C-43.55254931 76.77288151 -36.01213636 68.54444031 -29.03759766 61.52758789 C-19.80846665 51.85633473 -12.2997811 40.63563145 -5.5625 29.125 C-5.16643555 28.4652417 -4.77037109 27.8054834 -4.36230469 27.12573242 C-2.31386888 23.61485571 -2.31386888 23.61485571 -2.6328125 19.7265625 C-4.62611353 17.20930806 -6.52919393 15.06858182 -9 13 C-20.45215721 11.81401608 -29.77834468 23.66723773 -36.39746094 31.69482422 Z " fill="#000000" transform="translate(467,220)"/>
<path d="M0 0 C1.95707301 1.15671722 1.95707301 1.15671722 4 1.6875 C6.05512595 0.95042951 7.55908551 -0.07860461 9.33984375 -1.33203125 C11 -2.3125 11 -2.3125 14.1875 -2.3125 C17.36347609 -1.18326406 18.72005511 0.26597395 21 2.6875 C20.64808594 3.47060547 20.29617187 4.25371094 19.93359375 5.06054688 C12.36517285 21.98574922 5.24167853 38.86434102 0 56.6875 C-0.21205078 57.40389648 -0.42410156 58.12029297 -0.64257812 58.85839844 C-1.88680311 63.38344827 -2.21499974 67.50751352 -2.125 72.1875 C-2.10695313 73.4146875 -2.08890625 74.641875 -2.0703125 75.90625 C-2.04710937 76.8240625 -2.02390625 77.741875 -2 78.6875 C-1.34 79.0175 -0.68 79.3475 0 79.6875 C2.80162958 78.53173813 2.80162958 78.53173813 5.875 76.875 C6.92429687 76.33230469 7.97359375 75.78960937 9.0546875 75.23046875 C10.02664062 74.72128906 10.99859375 74.21210938 12 73.6875 C13.32 73.0275 14.64 72.3675 16 71.6875 C16.99 76.1425 16.99 76.1425 18 80.6875 C9.00752309 89.31293704 -4.69045109 99.48070662 -17.375 101.125 C-20 100.6875 -20 100.6875 -21.8125 99.375 C-25.22229864 94.52949667 -24.45151382 88.31089935 -24 82.6875 C-23.04741417 77.27076657 -21.72642236 71.9306707 -20.3671875 66.60351562 C-19.8745226 64.35789532 -19.8745226 64.35789532 -20 60.6875 C-20.68606323 61.38927368 -20.68606323 61.38927368 -21.38598633 62.10522461 C-54.32558682 95.69774906 -54.32558682 95.69774906 -72.6875 98.1875 C-76 97.6875 -76 97.6875 -78.875 95.75 C-83.50710699 89.07431639 -82.07073061 81.6749657 -80.71875 74.0078125 C-76.17463229 53.01596439 -64.50020945 36.93468994 -50 21.6875 C-49.41734375 21.04039062 -48.8346875 20.39328125 -48.234375 19.7265625 C-37.77276008 8.47240099 -15.40370559 -9.25416421 0 0 Z M-27 16.6875 C-27.65097656 17.17089844 -28.30195313 17.65429688 -28.97265625 18.15234375 C-43.21543487 29.64600288 -53.65298847 47.06448029 -58 64.6875 C-58.32529824 67.8403906 -58.27797593 70.51857434 -58 73.6875 C-54.26372046 74.70116888 -52.32846304 74.84532506 -48.9375 72.9375 C-30.06834512 61.5720523 -16.65441944 40.73605875 -6.4765625 21.73046875 C-5.7990313 18.82597023 -6.64133929 17.28556594 -8 14.6875 C-10.43496356 12.25253644 -11.93211559 10.80576733 -15.3984375 10.421875 C-20.08826073 10.90071581 -23.3226894 13.91556435 -27 16.6875 Z " fill="#000000" transform="translate(161,222.3125)"/>
<path d="M0 0 C-1.33211785 5.46168318 -3.76287302 9.35664338 -8 13 C-10.76839459 14.18467656 -13.45507859 14.5144461 -16.4375 14.8125 C-17.24719238 14.91739746 -18.05688477 15.02229492 -18.89111328 15.13037109 C-28.43150676 16.30870984 -38.03664792 17.05240242 -47.62255859 17.75048828 C-48.40711426 17.83282715 -49.19166992 17.91516602 -50 18 C-50.87027832 18.09055664 -51.74055664 18.18111328 -52.63720703 18.27441406 C-55.09558461 18.79617442 -55.09558461 18.79617442 -56.46289062 20.73291016 C-56.85669922 21.49394043 -57.25050781 22.2549707 -57.65625 23.0390625 C-58.11451172 23.91264404 -58.57277344 24.78622559 -59.04492188 25.6862793 C-59.52509766 26.65605713 -60.00527344 27.62583496 -60.5 28.625 C-61.2744043 30.15797729 -61.2744043 30.15797729 -62.06445312 31.72192383 C-87.44202185 82.6695081 -87.44202185 82.6695081 -95.625 137.875 C-95.42333724 144.30869256 -95.42333724 144.30869256 -97.96484375 147.35546875 C-101.84309013 149.90403066 -104.93089 150.94373105 -109.5625 151.1875 C-113.99682835 149.65564111 -118.21672297 147.8090426 -122 145 C-123.33745185 140.98764446 -122.33144797 137.87725222 -121.40234375 133.87890625 C-121.21921127 133.07723526 -121.0360788 132.27556427 -120.84739685 131.44960022 C-118.88491141 123.11919053 -116.31921161 115.03386992 -113.5625 106.9375 C-113.3059967 106.17563385 -113.04949341 105.4137677 -112.78521729 104.6288147 C-102.93648577 75.42112549 -91.15885604 46.86895934 -78 19 C-78.99 19.495 -78.99 19.495 -80 20 C-82.71962539 20.35544802 -85.42817775 20.66384369 -88.15625 20.9375 C-88.97315308 21.02249756 -89.79005615 21.10749512 -90.63171387 21.19506836 C-93.25411312 21.46703567 -95.87703323 21.73356737 -98.5 22 C-100.23701569 22.17933408 -101.97399534 22.35901761 -103.7109375 22.5390625 C-111.80560114 23.37612167 -119.90189682 24.19688233 -128 25 C-128.14467853 19.72249712 -127.02253188 17.68697497 -123.41796875 13.859375 C-118.59182901 10.14815931 -112.86036583 9.17120881 -107 8 C-105.71609375 7.72542969 -104.4321875 7.45085937 -103.109375 7.16796875 C-79.67949633 2.52972315 -55.1171519 2.69857498 -31.31689453 1.69702148 C-22.66198914 1.3295388 -14.03078758 0.92710258 -5.3984375 0.18579102 C-3 0 -3 0 0 0 Z " fill="#000000" transform="translate(151,172)"/>
<path d="M0 0 C2.9375 1.5 2.9375 1.5 4.8125 4 C6.39131437 8.91186693 7.42138375 12.43006387 5.9375 17.5 C2.94772509 21.93049978 -0.53921078 25.7337032 -4.23144531 29.58642578 C-6.09452602 31.53346933 -7.92097511 33.50988509 -9.7421875 35.49609375 C-15.83404439 42.11069996 -22.0602494 48.59802663 -28.375 55 C-28.92019287 55.55824463 -29.46538574 56.11648926 -30.02709961 56.69165039 C-31.33347279 58.00095407 -32.69335553 59.25648465 -34.0625 60.5 C-34.7225 60.5 -35.3825 60.5 -36.0625 60.5 C-36.0625 61.16 -36.0625 61.82 -36.0625 62.5 C-37.35546875 63.83984375 -37.35546875 63.83984375 -39.25 65.4375 C-39.97058594 66.04980469 -40.69117188 66.66210938 -41.43359375 67.29296875 C-42.30113281 68.02128906 -43.16867187 68.74960937 -44.0625 69.5 C-45.15817905 70.43285785 -46.25319228 71.36649812 -47.34765625 72.30078125 C-60.49714451 83.5 -60.49714451 83.5 -63.0625 83.5 C-63.0625 84.16 -63.0625 84.82 -63.0625 85.5 C-62.44318604 85.49476318 -61.82387207 85.48952637 -61.18579102 85.48413086 C-58.33220467 85.46311927 -55.47863469 85.45026386 -52.625 85.4375 C-51.65111328 85.42912109 -50.67722656 85.42074219 -49.67382812 85.41210938 C-44.48186702 85.39474496 -39.46123083 85.61237192 -34.31176758 86.25756836 C-24.02728105 87.36605584 -12.11486842 88.34167293 -2.8046875 83.27734375 C-1.0625 82.5 -1.0625 82.5 1.9375 83.5 C3.72439789 86.88570126 4.40908399 89.69785409 3.9375 93.5 C-5.19483862 102.26127294 -20.60623529 104.65748489 -32.73876953 104.60839844 C-38.12302195 104.35723138 -43.44011074 103.4429785 -48.76269531 102.63208008 C-60.6809165 100.86338956 -72.25157002 100.11630804 -83.859375 103.890625 C-86.8727937 104.72412379 -89.11061358 104.45936309 -92.0625 103.5 C-95.0625 101.5 -95.0625 101.5 -96.109375 97.71484375 C-96.4305384 94.04546912 -96.20775553 93.67675963 -93.703125 90.62890625 C-92.59388855 89.74641423 -91.46186503 88.89205271 -90.3125 88.0625 C-89.7148584 87.59569824 -89.1172168 87.12889648 -88.50146484 86.64794922 C-87.27909815 85.69454868 -86.04840671 84.75172405 -84.80957031 83.81982422 C-82.38192992 81.98586335 -80.03619985 80.05859731 -77.6875 78.125 C-76.80964844 77.40957031 -75.93179687 76.69414062 -75.02734375 75.95703125 C-71.39873106 72.94992007 -67.81776091 69.89140696 -64.25 66.8125 C-63.62754395 66.2777002 -63.00508789 65.74290039 -62.36376953 65.19189453 C-59.36795334 62.59455644 -56.49639343 59.95549015 -53.73828125 57.10546875 C-51.0625 54.5 -51.0625 54.5 -49.0625 54.5 C-49.0625 53.84 -49.0625 53.18 -49.0625 52.5 C-47.58545788 51.24772516 -46.10422601 49.99833478 -44.5703125 48.81640625 C-42.79487056 47.38235909 -42.79487056 47.38235909 -41.0625 44.5 C-40.4025 44.5 -39.7425 44.5 -39.0625 44.5 C-38.81628906 43.93152344 -38.57007813 43.36304688 -38.31640625 42.77734375 C-36.85298819 40.11948478 -35.09676524 38.25541321 -33 36.0625 C-27.69027735 30.29593433 -23.38242782 24.01563581 -19.0625 17.5 C-20.18011719 17.64308594 -21.29773438 17.78617188 -22.44921875 17.93359375 C-27.25198738 18.53354304 -32.06167407 19.05524083 -36.875 19.5625 C-37.71998047 19.65337891 -38.56496094 19.74425781 -39.43554688 19.83789062 C-40.24701172 19.92361328 -41.05847656 20.00933594 -41.89453125 20.09765625 C-42.62389893 20.17508057 -43.3532666 20.25250488 -44.10473633 20.33227539 C-46.0625 20.5 -46.0625 20.5 -49.0625 20.5 C-49.34996094 21.22058594 -49.63742187 21.94117188 -49.93359375 22.68359375 C-50.6494992 24.4696416 -51.37027247 26.25375221 -52.09765625 28.03515625 C-52.43667969 28.86917969 -52.77570313 29.70320313 -53.125 30.5625 C-53.46660156 31.39910156 -53.80820312 32.23570312 -54.16015625 33.09765625 C-55.11611254 35.423352 -55.11611254 35.423352 -55.453125 37.671875 C-56.0625 39.5 -56.0625 39.5 -57.69921875 40.73046875 C-66.1349234 44.66713092 -66.1349234 44.66713092 -70.0625 44.5 C-72.99359841 42.94686817 -75.10488851 41.18221992 -77.0625 38.5 C-77.87758703 31.57176021 -73.00466334 25.85899299 -69.0625 20.5 C-58.35414679 7.24910885 -58.35414679 7.24910885 -50.68188477 5.90991211 C-48.8612854 5.84429077 -48.8612854 5.84429077 -47.00390625 5.77734375 C-46.3376976 5.74572647 -45.67148895 5.71410919 -44.98509216 5.68153381 C-42.86537545 5.58271623 -40.7458322 5.50800864 -38.625 5.4375 C-21.24474722 5.20784404 -21.24474722 5.20784404 -4.83422852 0.37084961 C-3.0625 -0.5 -3.0625 -0.5 0 0 Z " fill="#000000" transform="translate(380.0625,216.5)"/>
<path d="M0 0 C4.05854827 2.33366525 4.86461713 5.19303063 6.1015625 9.5625 C6.74241706 14.09319269 5.95393993 17.11006056 3.23828125 20.73828125 C0.68154613 23.84970531 -2.05372236 26.78391988 -4.83740234 29.69238281 C-6.35722885 31.28764271 -7.83568299 32.90927754 -9.30078125 34.5546875 C-15.39191173 41.35840216 -21.80701175 47.84337387 -28.25 54.3125 C-29.43831421 55.50782349 -29.43831421 55.50782349 -30.65063477 56.72729492 C-38.21212533 64.26821862 -46.24274422 71.11320909 -54.5 77.875 C-55.66208984 78.82922852 -55.66208984 78.82922852 -56.84765625 79.80273438 C-58.73083611 81.34880179 -60.61495775 82.89370433 -62.5 84.4375 C-61.61646851 84.47508423 -61.61646851 84.47508423 -60.71508789 84.51342773 C-57.99741329 84.63082361 -55.27996658 84.75288715 -52.5625 84.875 C-51.63630859 84.91431641 -50.71011719 84.95363281 -49.75585938 84.99414062 C-45.46895495 85.18968363 -41.2218658 85.43494859 -36.9609375 85.953125 C-26.12947538 87.2342916 -13.10521033 88.6818098 -3.33984375 83.1171875 C-1.5 82.4375 -1.5 82.4375 0.69921875 83.03125 C2.5 84.4375 2.5 84.4375 3.109375 86.6015625 C3.15578125 87.41367187 3.2021875 88.22578125 3.25 89.0625 C3.33507812 90.28839844 3.33507812 90.28839844 3.421875 91.5390625 C3.44765625 92.16554688 3.4734375 92.79203125 3.5 93.4375 C-13.18027796 104.7333993 -29.95992867 105.50084434 -49.20019531 102.56958008 C-61.1184165 100.80088956 -72.68907002 100.05380804 -84.296875 103.828125 C-87.3102937 104.66162379 -89.54811358 104.39686309 -92.5 103.4375 C-95.5 101.4375 -95.5 101.4375 -96.9375 97.9375 C-97.13671875 95.77734375 -97.13671875 95.77734375 -96.5 93.4375 C-93.40163591 90.05697316 -89.85209654 87.37991006 -86.17089844 84.67675781 C-83.67223336 82.82356904 -81.27740737 80.85061867 -78.875 78.875 C-77.53115234 77.77865234 -77.53115234 77.77865234 -76.16015625 76.66015625 C-71.82944715 73.04169299 -67.67199919 69.23650589 -63.5 65.4375 C-62.02579582 64.09868192 -60.54700565 62.76488644 -59.0625 61.4375 C-58.44503906 60.880625 -57.82757813 60.32375 -57.19140625 59.75 C-55.5 58.4375 -55.5 58.4375 -52.5 57.4375 C-52.17 56.4475 -51.84 55.4575 -51.5 54.4375 C-50.07421875 53.0703125 -50.07421875 53.0703125 -48.1875 51.5625 C-37.4205605 42.37214807 -25.88607097 30.20964195 -19.5 17.4375 C-20.61181641 17.63666016 -20.61181641 17.63666016 -21.74609375 17.83984375 C-30.98872442 19.3897096 -40.14753448 20.01187881 -49.5 20.4375 C-50.92626486 23.95519361 -52.26966612 27.49368859 -53.5625 31.0625 C-53.90410156 32.00351563 -54.24570313 32.94453125 -54.59765625 33.9140625 C-55.25331828 35.74764549 -55.88421438 37.59014314 -56.5 39.4375 C-60.50141901 42.20697855 -65.63397854 44.64456474 -70.5 44.4375 C-73.43109841 42.88436817 -75.54238851 41.11971992 -77.5 38.4375 C-78.31464177 31.51304497 -73.46226584 25.77763486 -69.5 20.4375 C-58.40228557 6.97526476 -58.40228557 6.97526476 -51.15698242 5.97680664 C-49.90248291 5.93418701 -48.6479834 5.89156738 -47.35546875 5.84765625 C-45.9407528 5.78455915 -44.52603934 5.72140617 -43.11132812 5.65820312 C-40.91818384 5.57699352 -38.72495019 5.50123406 -36.53149414 5.42895508 C-26.01202002 5.05793379 -9.29325391 -2.09098213 0 0 Z " fill="#000000" transform="translate(278.5,216.5625)"/>
</svg>
