<?xml version="1.0" encoding="UTF-8"?>
<svg version="1.1" xmlns="http://www.w3.org/2000/svg" width="500" height="500">
<path d="M0 0 C3.53271079 1.10052613 6.87447733 2.55359934 10.25 4.0625 C11.64835083 4.67714111 11.64835083 4.67714111 13.07495117 5.30419922 C27.33817146 11.70290924 40.35953537 19.81428631 47.14453125 34.47265625 C49.14740961 40.38983569 48.71849428 47.22463689 46.2109375 52.94140625 C37.92455582 67.02825511 22.11586679 75.52213584 6.74609375 79.59765625 C2.54223416 80.21358447 -1.63097319 80.34739987 -5.875 80.4375 C-6.74769531 80.48326172 -7.62039062 80.52902344 -8.51953125 80.57617188 C-13.16943357 80.65658372 -16.38074216 80.26779923 -20.1953125 77.47265625 C-22.80154735 74.84447821 -22.98695423 74.25330535 -23.1875 70.359375 C-22.71484375 68.29882812 -22.71484375 68.29882812 -22 66 C-21.73316406 65.12279297 -21.46632813 64.24558594 -21.19140625 63.34179688 C-20.19468632 60.28339692 -19.11211769 57.26830646 -18 54.25 C-17.60208252 53.156875 -17.20416504 52.06375 -16.79418945 50.9375 C-13.29856394 41.49320253 -9.30679637 32.32693713 -5.02880859 23.21484375 C-3.30260117 19.49862313 -1.6548277 15.74846365 0 12 C-3.96 10.35 -7.92 8.7 -12 7 C-8.92313825 0.84627649 -6.99655728 -0.96553932 0 0 Z M10 16 C-5.20110785 41.57396801 -5.20110785 41.57396801 -10 70 C-5.17200167 73.21866555 -0.71667917 73.29517457 4.875 72.3125 C16.64398718 69.64748619 25.76017804 63.66940185 33 54 C35.86735016 48.16322572 36.26264244 41.71158149 34.16015625 35.53125 C28.95875473 25.30357833 20.11219525 20.60104884 10 16 Z " fill="#000000" transform="translate(37,210)"/>
<path d="M0 0 C-0.09087891 1.01646606 -0.09087891 1.01646606 -0.18359375 2.0534668 C-2.43847894 27.76999881 -2.33362167 52.38216863 1 78 C-2.09173752 79.54586876 -4.59429552 79.29359521 -8 79 C-10.93725171 76.99030146 -11.83313551 75.75906982 -12.59765625 72.28125 C-13.01747899 68.85745286 -13.09768416 65.57304749 -13.0625 62.125 C-13.05347656 60.97257812 -13.04445313 59.82015625 -13.03515625 58.6328125 C-13.02355469 57.76398438 -13.01195312 56.89515625 -13 56 C-14.09957031 56.20496094 -15.19914062 56.40992188 -16.33203125 56.62109375 C-17.04286865 56.75032227 -17.75370605 56.87955078 -18.48608398 57.01269531 C-20.04810525 57.29792115 -21.60882791 57.59034478 -23.16821289 57.88964844 C-27.57049309 58.70192777 -31.4496207 58.98926734 -35.9375 58.75 C-38.80964016 58.92539787 -40.35973914 59.33820824 -42.37939453 61.42578125 C-45.70802762 65.67126257 -48.38376339 70.29384001 -51 75 C-53.76865672 79.88432836 -53.76865672 79.88432836 -56 81 C-57.99960012 81.039992 -60.00047242 81.04346799 -62 81 C-63.54429593 75.203295 -63.54429593 75.203295 -62.14501953 72.10986328 C-60.86350308 70.18378813 -59.50412278 68.37170787 -58.0625 66.5625 C-57.58103516 65.92634766 -57.09957031 65.29019531 -56.60351562 64.63476562 C-55.42000086 63.07627588 -54.2123277 61.53618326 -53 60 C-54.32 59.34 -55.64 58.68 -57 58 C-56.42655063 55.13275314 -56.1385485 54.1385485 -54 52 C-52.67056877 51.7106195 -51.33638592 51.44284517 -50 51.1875 C-43.34091573 49.06339019 -40.2332337 43.27167563 -36.36962891 37.85107422 C-34.02717195 34.68520814 -31.45608659 31.72212343 -28.875 28.75 C-28.3694458 28.16677979 -27.8638916 27.58355957 -27.34301758 26.98266602 C-26.35911367 25.8507199 -25.37372813 24.7200596 -24.38671875 23.59082031 C-23.09317025 22.10688334 -21.81172221 20.61242245 -20.53125 19.1171875 C-19.8196875 18.29476562 -19.108125 17.47234375 -18.375 16.625 C-17.45847656 15.56152344 -17.45847656 15.56152344 -16.5234375 14.4765625 C-15 13 -15 13 -13 13 C-12.98582031 12.40832031 -12.97164063 11.81664062 -12.95703125 11.20703125 C-12.69869274 6.92699045 -12.33480821 4.49236502 -9.875 0.875 C-6.12714143 -1.56925559 -4.27661803 -0.79494782 0 0 Z M-16.1171875 25.09765625 C-28.5861432 36.97286651 -28.5861432 36.97286651 -36 51 C-28.74 51 -21.48 51 -14 51 C-13.67 41.76 -13.34 32.52 -13 23 C-14.37833346 22.88269624 -14.37833346 22.88269624 -16.1171875 25.09765625 Z " fill="#000000" transform="translate(353,212)"/>
<path d="M0 0 C-0.31225586 1.89526367 -0.31225586 1.89526367 -1 4 C-6.16840155 6.88328253 -11.10446112 7.65095887 -16.9375 8.1875 C-17.69740234 8.26935547 -18.45730469 8.35121094 -19.24023438 8.43554688 C-24.182086 8.93775041 -29.03390296 9.07344626 -34 9 C-34.37125 10.216875 -34.7425 11.43375 -35.125 12.6875 C-37.33647575 18.95334796 -40.21550186 24.9669207 -43 31 C-33.43 31 -23.86 31 -14 31 C-16 36 -16 36 -18.671875 37.2421875 C-27.98363211 39.36247022 -37.45383664 40.4043081 -47 40 C-47.18175781 40.66644531 -47.36351563 41.33289063 -47.55078125 42.01953125 C-49.3671875 48.6796875 -51.18359375 55.33984375 -53 62 C-50.38366948 64.61633052 -49.27959522 64.29840773 -45.625 64.3125 C-38.5731856 64.23353231 -31.74514269 63.18660314 -24.80517578 61.97973633 C-23.98130371 61.84075928 -23.15743164 61.70178223 -22.30859375 61.55859375 C-21.57439209 61.42767334 -20.84019043 61.29675293 -20.08374023 61.16186523 C-17.8253641 60.98643426 -16.1526537 61.33467848 -14 62 C-14.9375 64.8125 -14.9375 64.8125 -17 68 C-22.69317842 70.81593189 -29.2677997 71.78595951 -35.5 72.6875 C-36.35787109 72.8119751 -37.21574219 72.9364502 -38.09960938 73.06469727 C-43.89592295 73.84583274 -49.65161116 74.33819015 -55.5 74.4375 C-56.19931641 74.45965576 -56.89863281 74.48181152 -57.61914062 74.50463867 C-60.79288454 74.49090462 -62.80052132 74.12036445 -65.53125 72.47265625 C-67.26388182 69.55575214 -67.24623248 67.75102877 -66.63623047 64.44970703 C-65.26438743 59.16763757 -63.43010636 54.06131978 -61.5625 48.9375 C-61.12309082 47.71772461 -60.68368164 46.49794922 -60.23095703 45.24121094 C-55.99827572 33.60786749 -51.13022474 22.26340018 -46 11 C-48.64 11 -51.28 11 -54 11 C-53.69532808 8.18178471 -53.4076558 6.45861277 -51.5 4.3125 C-45.15549376 0.98163423 -37.73026102 0.64680345 -30.6875 0.375 C-29.84026367 0.33705322 -28.99302734 0.29910645 -28.12011719 0.26000977 C-18.7485939 -0.11998672 -9.37704063 -0.08978018 0 0 Z " fill="#000000" transform="translate(155,216)"/>
<path d="M0 0 C1.95701353 1.47123003 3.79363036 2.98141704 5.578125 4.65625 C5.03088817 8.03087715 4.523225 9.7386 2.578125 12.65625 C-2.45991475 13.97770305 -2.45991475 13.97770305 -5.421875 13.65625 C-7.10898923 12.0102849 -8.7764372 10.34387851 -10.421875 8.65625 C-16.17248109 8.7247096 -19.37906044 10.62008892 -23.359375 14.53125 C-23.87516113 15.02447754 -24.39094727 15.51770508 -24.92236328 16.02587891 C-36.27745857 27.16853088 -44.59969249 41.32351241 -45.671875 57.40625 C-45.42509669 60.61436799 -44.92268286 62.8213907 -43.421875 65.65625 C-39.80811829 67.46312836 -36.19307158 66.57554446 -32.421875 65.65625 C-22.764043 61.83856582 -15.18004085 56.53953147 -7.421875 49.65625 C-6.1965622 48.63079404 -4.96817687 47.60897625 -3.734375 46.59375 C-2.97125 45.954375 -2.208125 45.315 -1.421875 44.65625 C0.578125 47.65625 0.578125 47.65625 0.4296875 50.08203125 C-2.93726107 60.26010055 -17.2872437 67.85002322 -26.33935547 72.67919922 C-34.90834114 76.94709836 -43.82212659 79.60961246 -53.421875 77.65625 C-56.56440412 75.69138209 -57.91615186 73.30403665 -59.01171875 69.734375 C-61.94192705 54.8879863 -55.10941864 40.18299383 -47.31787109 27.91845703 C-38.78542016 15.28408413 -17.73127705 -9.83799888 0 0 Z " fill="#000000" transform="translate(293.421875,213.34375)"/>
<path d="M0 0 C2.5 2.125 2.5 2.125 4.5 4.125 C4.14700993 7.56665321 3.45418308 9.19372538 1.5 12.125 C-3.51915314 13.44149918 -3.51915314 13.44149918 -6.5 13.125 C-9.1875 10.6875 -9.1875 10.6875 -11.5 8.125 C-14.67283135 7.61734698 -16.12461674 7.90025994 -18.89453125 9.55859375 C-33.52871599 21.68676301 -44.01188756 35.96252115 -46.5 55.125 C-46.3443842 58.66525948 -45.95937933 61.87456422 -44.5 65.125 C-40.88719371 66.93140314 -37.26973032 66.04788004 -33.5 65.125 C-24.42917597 61.48188674 -16.83375575 56.57297353 -9.5 50.125 C-8.12511111 48.9582024 -6.75012309 47.79152158 -5.375 46.625 C-4.42625 45.8 -3.4775 44.975 -2.5 44.125 C-0.5 46.125 -0.5 46.125 -0.125 48.4375 C-1.1151167 55.53333637 -9.10042397 60.23298824 -14.484375 64.328125 C-23.77722032 71.04728418 -35.45561868 77.3629648 -47.0625 77.5 C-48.15691406 77.52835937 -49.25132812 77.55671875 -50.37890625 77.5859375 C-54.24502678 77.01497101 -55.82063667 75.94286875 -58.5 73.125 C-62.4488814 63.7314488 -60.22013047 52.25032665 -56.69287109 43.01074219 C-52.8807751 34.06276212 -47.96432403 26.40559305 -41.5 19.125 C-40.95988281 18.44308594 -40.41976563 17.76117188 -39.86328125 17.05859375 C-31.09656018 6.21163378 -14.53613445 -7.78721488 0 0 Z " fill="#000000" transform="translate(425.5,213.875)"/>
<path d="M0 0 C3.4375 1.125 3.4375 1.125 5.02685547 3.28637695 C6.56375516 6.37906174 7.52639222 9.33918832 8.4453125 12.66796875 C8.79207031 13.90611328 9.13882812 15.14425781 9.49609375 16.41992188 C9.85191694 17.71735076 10.20738179 19.01487798 10.5625 20.3125 C11.27043079 22.86933852 11.98269689 25.42492774 12.6953125 27.98046875 C13.0061377 29.11121826 13.31696289 30.24196777 13.63720703 31.40698242 C14.33157494 34.06012664 14.33157494 34.06012664 15.4375 36.125 C17.08456908 34.18853934 18.73028672 32.25096043 20.375 30.3125 C20.87281982 29.72662109 21.37063965 29.14074219 21.88354492 28.53710938 C24.27594048 25.71309803 26.65079436 22.88013513 28.9609375 19.98828125 C37.78423295 8.95163352 37.78423295 8.95163352 43.4375 6.125 C45.43710012 6.085008 47.43797242 6.08153201 49.4375 6.125 C49.4375 10.125 49.4375 10.125 47.56640625 12.31640625 C46.71949219 13.09886719 45.87257813 13.88132813 45 14.6875 C39.65813325 19.83484499 34.99994367 25.28856063 30.4375 31.125 C29.93283203 31.7638916 29.42816406 32.4027832 28.90820312 33.06103516 C18.96993891 45.66703201 10.62659733 58.57620789 3.19921875 72.8125 C-1.03448538 80.77299026 -1.03448538 80.77299026 -4.5625 83.125 C-8.04368757 82.97995052 -9.91662135 82.69014382 -12.5625 80.375 C-13.5625 78.125 -13.5625 78.125 -12.953125 75.94140625 C-11.12614688 72.24126235 -8.78931293 69.10130158 -6.3125 65.8125 C-5.82177002 65.14387939 -5.33104004 64.47525879 -4.82543945 63.78637695 C-2.77527038 61.00460946 -0.72473104 58.30836572 1.56640625 55.71875 C4.59051991 52.38165944 4.59051991 52.38165944 5.39160156 48.11572266 C3.63058431 40.1568172 1.02536694 32.50816622 -1.625 24.8125 C-2.31699849 22.79205763 -3.0071254 20.77102216 -3.69371033 18.74873352 C-4.31270841 16.92706767 -4.93755268 15.10739139 -5.56274414 13.2878418 C-6.4314202 10.53968591 -7.22359754 7.98605352 -7.5625 5.125 C-5.47043702 1.11521263 -4.59114391 0.16109277 0 0 Z " fill="#000000" transform="translate(445.5625,211.875)"/>
<path d="M0 0 C2.26211599 3.4828614 3.30466718 5.50767977 2.45800781 9.65478516 C1.30050044 12.93511125 -0.00230928 16.1160884 -1.375 19.3125 C-1.86653564 20.50842773 -2.35807129 21.70435547 -2.86450195 22.93652344 C-4.53278321 26.97669743 -6.26118 30.98976785 -8 35 C-8.32615295 35.75351746 -8.65230591 36.50703491 -8.98834229 37.28338623 C-13.58462285 47.88880966 -18.26383166 58.45637569 -23 69 C-19.03457717 68.73599714 -15.06934019 68.46936451 -11.10424805 68.20043945 C-9.10279236 68.06522213 -7.1012019 67.93200456 -5.09960938 67.79882812 C1.62335766 67.34159863 8.31062808 66.81506068 15 66 C14.5 68.8125 14.5 68.8125 13 72 C2.58438588 77.30249446 -9.25684245 77.27906796 -20.6875 77.125 C-21.97333984 77.11597656 -23.25917969 77.10695313 -24.58398438 77.09765625 C-27.72285732 77.0743189 -30.86132476 77.04158033 -34 77 C-35.703125 74.4453125 -35.703125 74.4453125 -37 71 C-36.08127508 68.27528843 -35.17580761 66.31323915 -33.75 63.875 C-32.98191998 62.45254315 -32.21776646 61.02796089 -31.45703125 59.6015625 C-31.05178223 58.85293945 -30.6465332 58.10431641 -30.22900391 57.33300781 C-21.7166436 41.17406561 -14.05916555 23.27244578 -10.8984375 5.21484375 C-8.97136036 0.46417966 -4.72140681 -0.40469201 0 0 Z " fill="#000000" transform="translate(182,212)"/>
<path d="M0 0 C0.66 0.66 1.32 1.32 2 2 C1.70740444 7.96733513 0.16286617 12.7886119 -2.16796875 18.2421875 C-2.48526443 19.00943146 -2.80256012 19.77667542 -3.12947083 20.56716919 C-4.13958605 23.00707701 -5.16234494 25.44137735 -6.1875 27.875 C-10.1908003 37.41841716 -14.11574844 46.95023828 -17.421875 56.76171875 C-17.66902756 57.48813568 -17.91618011 58.21455261 -18.17082214 58.96298218 C-19.87714343 64.1605199 -20.8469068 69.24825851 -21.28515625 74.71484375 C-22 77 -22 77 -24.35546875 78.83203125 C-27.68023627 80.30042931 -29.54036949 79.94353559 -33 79 C-33.33 78.67 -33.66 78.34 -34 78 C-33.867021 72.29118078 -32.61569573 66.87568864 -30.75 61.5 C-30.50258057 60.76861816 -30.25516113 60.03723633 -30.00024414 59.28369141 C-26.59321968 49.47573798 -22.65750691 39.84935168 -18.75878906 30.22851562 C-18.21178981 28.86893195 -17.66588256 27.50890841 -17.12109375 26.1484375 C-16.85430817 25.48386536 -16.58752258 24.81929321 -16.31265259 24.13458252 C-14.11276765 18.53965886 -12.33499723 12.84449119 -10.80162048 7.03158569 C-9.46674123 2.33621921 -9.46674123 2.33621921 -7.01733398 0.57177734 C-4.54450972 -0.1291006 -2.55698358 -0.26915617 0 0 Z " fill="#000000" transform="translate(237,212)"/>
</svg>
